<svg xmlns="http://www.w3.org/2000/svg" width="16" height="16" viewBox="0 0 16 16">
    <g fill="none" fill-rule="evenodd">
        <g>
            <g>
                <g transform="translate(-450 -224) translate(420 204) translate(30 20)">
                    <path d="M0 0H16V16H0z"/>
                    <path fill="#F7D445" fill-rule="nonzero" d="M1.333 8.667C1.333 8.333 1.667 8 2 8s.667.333.667.667V12c0 .736.597 1.333 1.333 1.333h8c.736 0 1.333-.597 1.333-1.333V8.667c0-.369.299-.667.667-.667.368 0 .667.298.667.667V12c0 1.473-1.194 2.667-2.667 2.667H4c-1.473 0-2.667-1.194-2.667-2.667V8.667z"/>
                    <rect width="1.333" height="9.333" x="7.333" y="1.333" fill="#F7D445" rx=".667"/>
                    <path fill="#F7D445" fill-rule="nonzero" d="M8.024 2.252L5.138 5.138c-.26.26-.682.26-.943 0-.26-.26-.26-.682 0-.943L7.53.862c.25-.25.653-.261.917-.024l3.333 3c.274.246.296.668.05.941-.246.274-.668.296-.942.05L8.024 2.252z"/>
                </g>
            </g>
        </g>
    </g>
</svg>
