<?xml version="1.0" encoding="UTF-8"?>
<svg width="28px" height="16px" viewBox="0 0 28 16" version="1.1" xmlns="http://www.w3.org/2000/svg" xmlns:xlink="http://www.w3.org/1999/xlink">
    <title>Symbol</title>
    <g id="Desktop" stroke="none" stroke-width="1" fill="none" fill-rule="evenodd">
        <g id="Home/Rounded-Corners---5x5" transform="translate(-649.000000, -63.000000)" stroke="#F7D445">
            <g id="Logo" transform="translate(649.500000, 62.992000)">
                <g id="Symbol" transform="translate(13.500000, 8.008000) scale(-1, 1) translate(-13.500000, -8.008000) translate(0.000000, 0.008000)">
                    <line x1="26.5" y1="16" x2="26.5" y2="7.10542736e-15" id="Line_7"></line>
                    <line x1="24.5" y1="15" x2="24.5" y2="1" id="Line_6"></line>
                    <line x1="22.5" y1="14" x2="22.5" y2="2" id="Line_5"></line>
                    <line x1="20.5" y1="13" x2="20.5" y2="3" id="Line_4"></line>
                    <line x1="18.5" y1="12" x2="18.5" y2="4" id="Line_3"></line>
                    <line x1="16.5" y1="11" x2="16.5" y2="5" id="Line_2"></line>
                    <line x1="14.5" y1="9.992" x2="14.5" y2="5.992" id="Line_1"></line>
                    <line x1="0.5" y1="16" x2="0.5" y2="7.10542736e-15" id="Line_7"></line>
                    <line x1="2.5" y1="15" x2="2.5" y2="1" id="Line_6"></line>
                    <line x1="4.5" y1="14" x2="4.5" y2="2" id="Line_5"></line>
                    <line x1="6.5" y1="13" x2="6.5" y2="3" id="Line_4"></line>
                    <line x1="8.5" y1="12" x2="8.5" y2="4" id="Line_3"></line>
                    <line x1="10.5" y1="11" x2="10.5" y2="5" id="Line_2"></line>
                    <line x1="12.5" y1="9.992" x2="12.5" y2="5.992" id="Line_1"></line>
                </g>
            </g>
        </g>
    </g>
</svg>