<svg xmlns="http://www.w3.org/2000/svg" width="142" height="18" viewBox="0 0 142 18">
    <g fill="none" fill-rule="evenodd">
        <g>
            <g>
                <path fill="#F7D445" fill-rule="nonzero" d="M45.914 16c.456 0 .839-.144 1.174-.48l1.558-1.559c.336-.336.503-.744.503-1.2v-2.206c0-.48-.167-.864-.503-1.2L47.28 7.988l1.366-1.367c.336-.336.503-.744.503-1.2V3.262c0-.48-.167-.863-.503-1.199L47.065.48C46.753.168 46.37 0 45.915 0H37v16h8.914zm-1.222-9.355h-4.816v-3.91h5.391c.144 0 .24.048.336.144l.527.527c.096.096.144.192.144.336v1.32c0 .143-.048.24-.144.335l-1.102 1.104c-.096.096-.216.144-.336.144zm.575 6.62h-5.391V9.331h4.768c.144 0 .24.048.336.144l1.15 1.152c.096.096.144.192.144.336v1.295c0 .144-.048.24-.144.336l-.527.527c-.096.096-.216.144-.336.144zM61.1 16c.455 0 .863-.168 1.198-.504l1.965-1.967c.336-.336.503-.743.503-1.2V3.67c0-.456-.167-.863-.503-1.2L62.297.505C61.962.168 61.554 0 61.1 0h-6.254c-.456 0-.863.168-1.199.504L51.681 2.47c-.335.336-.503.743-.503 1.2v8.659c0 .456.168.863.503 1.2l1.965 1.966c.336.336.743.504 1.199.504h6.254zm-.623-2.735h-5.008c-.144 0-.24-.048-.336-.144l-.934-.935c-.096-.096-.144-.216-.144-.336v-7.7c0-.12.048-.24.144-.336l.934-.935c.096-.096.192-.144.336-.144h5.008c.144 0 .24.048.335.144l.935.935c.096.096.144.216.144.336v7.7c0 .12-.048.24-.144.336l-.935.935c-.095.096-.191.144-.335.144zM76.715 16c.455 0 .863-.168 1.198-.504l1.965-1.967c.336-.336.503-.743.503-1.2V3.67c0-.456-.167-.863-.503-1.2L77.913.505C77.578.168 77.17 0 76.715 0H70.46c-.456 0-.863.168-1.199.504L67.297 2.47c-.335.336-.503.743-.503 1.2v8.659c0 .456.168.863.503 1.2l1.965 1.966c.336.336.743.504 1.199.504h6.254zm-.623-2.735h-5.008c-.144 0-.24-.048-.336-.144l-.934-.935c-.096-.096-.144-.216-.144-.336v-7.7c0-.12.048-.24.144-.336l.934-.935c.096-.096.192-.144.336-.144h5.008c.144 0 .24.048.335.144l.935.935c.096.096.144.216.144.336v7.7c0 .12-.048.24-.144.336l-.935.935c-.096.096-.191.144-.335.144zM85.885 16V3.286L89.79 16h2.971l3.906-12.714V16h2.804V0h-4.41l-3.786 12.402L87.49 0h-4.409v16h2.804zm22.445 0V2.735h4.625V0H100.83v2.735h4.625V16h2.875zm6.846 0l1.51-4.006h6.374L124.57 16h2.923l-5.871-16h-3.403L112.3 16h2.876zm6.901-6.573h-4.41l2.206-6.333 2.204 6.333zm9.65 6.573V9.691h6.038c.455 0 .839-.168 1.15-.48l1.582-1.583c.335-.336.503-.72.503-1.2V3.263c0-.48-.168-.863-.503-1.199L138.915.48c-.311-.312-.695-.48-1.15-.48h-8.914v16h2.875zm5.391-9.043h-5.392V2.735h5.392c.144 0 .24.048.335.144l.528.527c.095.096.143.192.143.336V5.95c0 .144-.048.24-.143.336l-.528.528c-.095.096-.191.144-.335.144z" transform="translate(-649 -62) translate(649.5 62.992)"/>
                <g stroke="#F7D445">
                    <path d="M26.5 16L26.5 0M24.5 15L24.5 1M22.5 14L22.5 2M20.5 13L20.5 3M18.5 12L18.5 4M16.5 11L16.5 5M14.5 9.992L14.5 5.992M.5 16L.5 0M2.5 15L2.5 1M4.5 14L4.5 2M6.5 13L6.5 3M8.5 12L8.5 4M10.5 11L10.5 5M12.5 9.992L12.5 5.992" transform="translate(-649 -62) translate(649.5 62.992) matrix(-1 0 0 1 27 .008)"/>
                </g>
            </g>
        </g>
    </g>
</svg>
