<?xml version="1.0" standalone="no"?>
<!DOCTYPE svg PUBLIC "-//W3C//DTD SVG 20010904//EN"
 "http://www.w3.org/TR/2001/REC-SVG-20010904/DTD/svg10.dtd">
<svg version="1.0" xmlns="http://www.w3.org/2000/svg"
 width="896.000000pt" height="896.000000pt" viewBox="0 0 896.000000 896.000000"
 preserveAspectRatio="xMidYMid meet">
<metadata>
Created by potrace 1.14, written by Peter Selinger 2001-2017
</metadata>
<g transform="translate(0.000000,896.000000) scale(0.100000,-0.100000)"
fill="#000000" stroke="none">
<path d="M159 7003 c-1 -21 -1 -41 0 -45 1 -8 1 -109 0 -128 -1 -8 0 -49 0
-90 1 -41 1 -124 1 -185 -1 -60 0 -114 1 -120 1 -5 1 -13 0 -17 -1 -9 -1 -66
-1 -158 0 -114 1 -344 1 -360 -1 -8 0 -46 0 -85 1 -38 1 -74 1 -80 -2 -30 -3
-252 -1 -260 1 -5 1 -13 0 -17 -1 -9 -1 -66 -1 -158 0 -114 1 -344 1 -360 -1
-8 0 -46 0 -85 1 -38 1 -74 1 -80 -2 -30 -3 -252 -1 -260 1 -5 1 -13 0 -17 -1
-9 -1 -66 -1 -158 0 -114 1 -344 1 -360 -1 -8 0 -46 0 -85 1 -38 1 -74 1 -80
-2 -30 -3 -252 -1 -260 1 -5 1 -13 0 -17 -1 -9 -1 -66 -1 -158 0 -114 1 -344
1 -360 -1 -8 0 -46 0 -85 1 -38 1 -74 1 -80 -2 -30 -3 -252 -1 -260 1 -5 1
-13 0 -17 -1 -9 -1 -66 -1 -158 0 -36 0 -128 1 -205 0 -77 0 -147 0 -155 1 -8
0 -20 -1 -25 -1 -6 -2 -34 -1 -62 l1 -53 160 0 160 0 1 38 c1 20 1 40 0 44 -1
8 -1 109 0 128 1 8 0 49 0 90 -1 41 -1 125 -1 185 1 61 0 115 -1 120 -1 6 -1
13 0 17 1 9 1 66 1 158 0 36 0 128 -1 205 0 77 0 146 0 153 -1 128 0 273 1
292 1 14 2 32 1 40 0 8 0 60 0 115 1 55 0 109 -1 120 0 11 -1 27 -1 35 0 8 0
35 0 60 0 25 0 50 0 55 0 6 0 57 0 115 0 58 0 114 0 125 1 11 0 52 0 90 -1 39
-1 75 -1 80 2 30 3 252 1 260 -1 6 -1 13 0 17 1 9 1 66 1 158 0 36 0 128 -1
205 0 77 0 146 0 153 -1 128 0 273 1 292 1 14 2 32 1 40 0 8 0 60 0 115 1 55
0 109 -1 120 0 11 -1 27 -1 35 0 8 0 35 0 60 -1 62 -1 53 0 170 0 58 0 114 0
125 1 11 0 52 0 90 -1 39 -1 75 -1 80 2 30 3 252 1 260 -1 6 -1 13 0 17 1 9 1
66 1 158 0 36 0 128 -1 205 0 77 0 147 0 155 -1 8 0 20 1 25 1 6 2 34 1 63
l-1 52 -160 0 -160 0 -1 -37z"/>
<path d="M8479 7003 c-1 -21 -1 -41 0 -45 1 -8 1 -109 0 -128 -1 -8 0 -49 0
-90 1 -41 1 -124 1 -185 -1 -60 0 -114 1 -120 1 -5 1 -13 0 -17 -1 -9 -1 -66
-1 -158 0 -36 0 -128 1 -205 0 -77 0 -146 0 -152 1 -129 0 -274 -1 -293 -1
-14 -2 -32 -1 -40 0 -8 0 -60 0 -115 -1 -55 0 -107 0 -115 0 -8 1 -28 0 -45 0
-37 0 -30 1 -140 0 -49 0 -139 0 -200 -1 -60 0 -114 1 -120 1 -5 1 -13 0 -17
-1 -9 -1 -67 -1 -158 0 -36 0 -155 1 -265 0 -110 0 -204 0 -210 1 -5 0 -30 0
-55 -1 -25 -1 -74 -1 -110 0 -114 1 -344 1 -360 -1 -8 0 -46 0 -85 1 -38 1
-74 1 -80 -2 -30 -3 -252 -1 -260 1 -5 1 -13 0 -17 -1 -9 -1 -66 -1 -158 0
-73 1 -337 1 -360 0 -8 0 -80 0 -160 0 -80 0 -152 0 -160 -1 -8 0 -46 0 -85 1
-38 1 -74 1 -80 -4 -67 -3 -257 1 -261 3 -3 3 -12 0 -20 -4 -12 22 -14 156
-14 l161 0 1 28 c1 15 0 32 -1 37 -1 6 -1 37 -1 70 0 33 1 125 0 205 0 80 0
152 0 160 0 8 0 80 0 160 0 80 0 152 0 160 0 8 0 47 0 85 -1 39 -1 75 -1 80 2
30 3 252 1 260 -1 6 -1 13 0 17 1 9 1 66 1 158 0 36 0 128 -1 205 0 77 0 146
0 153 -1 128 0 273 1 292 1 14 2 32 1 40 0 8 0 60 0 115 1 55 0 107 0 115 0 8
-1 29 0 45 0 17 0 37 0 45 0 8 0 60 0 115 1 55 0 107 0 115 0 8 -1 29 0 45 0
17 0 37 0 45 0 8 0 60 0 115 1 55 0 107 0 115 0 8 -1 29 0 45 0 37 0 30 -1
140 0 50 0 140 0 200 1 61 0 115 -1 120 -1 6 -1 13 0 17 1 9 1 66 1 158 0 114
-1 344 -1 360 1 8 0 47 0 85 -1 39 -1 75 -1 80 2 30 3 252 1 260 -1 6 -1 13 0
17 1 9 1 66 1 158 0 36 0 128 -1 205 0 77 0 147 0 155 -1 8 0 20 1 25 1 6 2
34 1 63 l-1 52 -160 0 -160 0 -1 -37z"/>
<path d="M838 6722 c-27 -2 -37 -8 -37 -20 0 -9 0 -71 -1 -137 -1 -66 0 -124
1 -130 1 -5 1 -13 0 -17 -1 -9 -1 -66 -1 -158 0 -36 0 -128 1 -205 0 -77 0
-146 0 -152 1 -129 0 -274 -1 -293 -1 -14 -2 -32 -1 -40 0 -8 0 -60 0 -115 -1
-55 0 -107 0 -115 0 -8 1 -28 0 -45 0 -37 0 -30 1 -140 0 -49 0 -139 0 -200
-1 -60 0 -114 1 -120 1 -5 1 -13 0 -17 -1 -9 -1 -67 -1 -158 0 -36 0 -155 1
-265 0 -110 0 -204 0 -210 1 -5 0 -30 0 -55 -1 -25 -1 -72 -1 -105 1 -153 1
-312 0 -335 -1 -14 -2 -32 -1 -40 0 -8 0 -60 0 -115 -1 -55 0 -109 1 -120 0
-11 1 -27 1 -35 0 -8 0 -35 0 -60 1 -62 1 -53 0 -170 0 -58 0 -114 0 -125 -1
-11 0 -51 0 -90 1 -38 1 -74 1 -80 -2 -30 -3 -252 -1 -260 1 -5 1 -13 0 -17
-1 -9 -1 -86 0 -108 0 -8 1 -55 0 -105 0 -49 0 -97 0 -106 0 -12 11 -18 35
-21 19 -2 34 0 34 5 0 4 4 6 9 2 5 -3 45 -6 88 -6 146 -1 152 0 152 19 0 9 0
71 1 137 1 66 0 125 -1 130 -1 6 -1 13 0 17 1 9 1 66 1 158 0 114 -1 344 -1
360 1 8 0 47 0 85 -1 39 -1 75 -1 80 2 30 3 252 1 260 -1 6 -1 13 0 17 1 9 2
71 1 153 -1 153 -1 312 0 335 1 14 2 32 1 40 0 8 0 60 0 115 1 55 0 107 0 115
0 8 -1 29 0 45 0 17 0 37 0 45 0 8 0 60 0 115 1 55 0 107 0 115 0 8 -1 29 0
45 0 17 0 37 0 45 0 8 0 60 0 115 1 55 0 109 -1 120 0 11 -1 27 -1 35 0 8 0
35 0 60 0 25 0 50 0 55 0 31 0 342 0 355 -1 8 0 35 0 60 1 25 1 74 1 110 0
114 -1 344 -1 360 1 8 0 47 0 85 -1 39 -1 75 -1 80 2 30 3 252 1 260 -1 6 -1
13 0 17 1 9 1 86 0 108 0 8 -1 56 0 105 0 50 0 97 0 106 0 12 -11 18 -35 21
-19 2 -34 1 -34 -4 0 -4 -6 -5 -12 -3 -17 7 -152 11 -200 7z"/>
<path d="M7878 6722 c-27 -2 -37 -8 -37 -20 0 -9 0 -71 -1 -137 -1 -66 0 -124
1 -130 1 -5 1 -13 0 -17 -1 -9 -1 -66 -1 -158 0 -114 1 -344 1 -360 -1 -8 0
-46 0 -85 1 -38 1 -74 1 -80 -2 -30 -3 -252 -1 -260 1 -5 1 -13 0 -17 -1 -9
-1 -66 -1 -158 0 -114 1 -344 1 -360 -1 -8 0 -46 0 -85 1 -38 1 -74 1 -80 -2
-30 -3 -252 -1 -260 1 -5 1 -13 0 -17 -1 -9 -1 -66 -1 -158 0 -36 0 -128 1
-205 0 -77 0 -146 0 -152 1 -129 0 -274 -1 -293 -1 -14 -2 -32 -1 -40 0 -8 0
-60 0 -115 -1 -55 0 -107 0 -115 0 -8 1 -28 0 -45 0 -16 0 -37 0 -45 0 -8 0
-60 0 -115 -1 -55 0 -107 0 -115 0 -8 1 -28 0 -45 0 -16 0 -37 0 -45 0 -8 0
-60 0 -115 -1 -55 0 -107 0 -115 0 -8 1 -28 0 -45 0 -16 0 -37 0 -45 0 -8 0
-60 0 -115 -1 -55 0 -107 0 -115 0 -8 1 -31 0 -50 0 -19 0 -42 0 -50 0 -8 1
-38 1 -66 1 -32 5 -51 13 -52 10 -1 237 -1 288 -1 16 0 33 52 21 64 -2 2 -4
35 -3 72 1 37 1 97 0 133 0 36 -1 70 0 75 1 37 2 252 0 260 -1 6 -1 13 0 17 1
9 1 67 1 158 0 36 0 155 -1 265 0 110 0 205 0 210 -1 6 0 30 0 55 1 25 1 74 1
110 0 114 -1 344 -1 360 1 8 0 47 0 85 -1 39 -1 75 -1 80 2 30 3 252 1 260 -1
6 -1 13 0 17 1 9 1 66 1 158 0 36 0 128 -1 205 0 77 0 146 0 153 -1 128 0 273
1 292 1 14 2 32 1 40 0 8 0 60 0 115 1 55 0 109 -1 120 0 11 -1 27 -1 35 0 8
0 35 0 60 -1 62 -1 53 0 170 0 58 0 114 0 125 1 11 0 52 0 90 -1 39 -1 75 -1
80 2 30 3 252 1 260 -1 6 -1 13 0 17 1 9 1 86 0 108 0 8 -1 56 0 105 0 50 0
97 0 106 0 12 -11 18 -35 21 -19 2 -34 1 -34 -4 0 -4 -6 -5 -12 -3 -17 7 -152
11 -200 7z"/>
<path d="M1516 6403 c-2 -2 -19 -4 -39 -5 -31 -1 -36 -5 -39 -30 -3 -15 -3
-30 0 -33 2 -2 4 -35 3 -72 0 -37 -1 -131 -1 -208 1 -77 1 -147 1 -155 -1 -8
0 -46 0 -85 1 -38 1 -74 1 -80 -2 -30 -3 -252 -1 -260 1 -5 1 -13 0 -17 -1 -9
-2 -71 -1 -153 1 -153 1 -312 0 -335 -1 -14 -2 -32 -1 -40 0 -8 0 -60 0 -115
-1 -55 0 -107 0 -115 0 -8 1 -28 0 -45 0 -16 0 -37 0 -45 0 -8 0 -60 0 -115
-1 -55 0 -107 0 -115 0 -8 1 -28 0 -45 0 -16 0 -37 0 -45 0 -8 0 -60 0 -115
-1 -55 0 -109 1 -120 0 -11 1 -27 1 -35 0 -8 0 -35 0 -60 0 -25 0 -49 0 -55 0
-5 0 -57 0 -115 0 -58 0 -114 0 -125 -1 -11 0 -51 0 -90 1 -38 1 -74 1 -80 -2
-30 -3 -252 -1 -260 1 -5 1 -13 0 -17 -1 -9 -1 -66 -1 -158 0 -106 1 -344 1
-360 -1 -25 0 -114 1 -128 1 -8 13 -13 32 -12 17 1 36 1 41 0 23 -3 238 0 242
4 3 2 4 39 3 83 -1 43 -1 85 -1 93 0 8 0 47 0 85 -1 39 -1 75 -1 80 2 30 3
252 1 260 -1 6 -1 13 0 17 1 9 1 66 1 158 0 114 -1 344 -1 360 1 8 0 47 0 85
-1 39 -1 75 -1 80 2 30 3 252 1 260 -1 6 -1 13 0 17 1 9 1 67 1 158 0 36 0
155 -1 265 0 110 0 205 0 210 -1 6 0 30 0 55 1 25 1 72 1 105 -1 153 -1 312 0
335 1 14 2 32 1 40 0 8 0 60 0 115 1 55 0 109 -1 120 0 11 -1 27 -1 35 0 8 0
35 0 60 -1 62 -1 53 0 170 0 58 0 114 0 125 1 11 0 52 0 90 -1 39 -1 75 -1 80
4 67 3 257 -1 261 -3 3 -3 12 -1 19 6 14 -62 25 -91 15 -8 -3 -45 -3 -81 0
-36 3 -66 4 -68 3z"/>
<path d="M7208 6399 c-5 -4 -9 -22 -8 -40 1 -19 1 -38 0 -44 -1 -5 -1 -35 -1
-65 1 -30 0 -100 0 -155 -1 -55 0 -109 1 -120 0 -11 1 -27 1 -35 0 -8 0 -35 0
-60 1 -62 1 -53 0 -170 0 -58 0 -114 0 -125 -1 -11 0 -51 0 -90 1 -38 1 -74 1
-80 -2 -30 -3 -252 -1 -260 1 -5 1 -13 0 -17 -1 -9 -1 -66 -1 -158 0 -36 0
-128 1 -205 0 -77 0 -146 0 -152 1 -129 0 -274 -1 -293 -1 -14 -2 -32 -1 -40
0 -8 0 -60 0 -115 -1 -55 0 -107 0 -115 0 -8 1 -28 0 -45 0 -37 0 -30 1 -140
0 -49 0 -139 0 -200 -1 -60 0 -114 1 -120 1 -5 1 -13 0 -17 -1 -9 -1 -67 -1
-158 0 -36 0 -155 1 -265 0 -110 0 -204 0 -210 1 -5 0 -30 0 -55 -1 -25 -1
-76 0 -115 0 -38 0 -74 -1 -80 -1 -5 -2 -29 -1 -52 1 -33 5 -42 19 -42 9 0 38
0 65 0 26 0 53 0 60 0 6 0 44 -1 82 -1 39 -1 76 -1 83 -1 9 1 13 13 12 39 -1
20 -1 42 0 47 1 6 1 35 1 65 -1 30 0 100 0 155 0 55 0 107 0 115 0 8 -1 29 0
45 0 17 0 37 0 45 0 8 0 60 0 115 1 55 0 107 0 115 0 8 -1 29 0 45 0 17 0 37
0 45 0 8 0 60 0 115 1 55 0 107 0 115 0 8 -1 29 0 45 0 37 0 30 -1 140 0 50 0
140 0 200 1 61 0 115 -1 120 -1 6 -1 13 0 17 1 9 1 66 1 158 0 114 -1 344 -1
360 1 8 0 47 0 85 -1 39 -1 75 -1 80 2 30 3 252 1 260 -1 6 -1 13 0 17 1 9 1
66 1 158 0 114 -1 344 -1 360 1 8 0 47 0 85 -1 39 -1 75 -1 80 2 30 3 252 1
260 -1 6 -1 13 0 17 1 11 2 84 0 163 0 39 0 75 1 80 1 6 2 29 1 52 -1 33 -5
42 -18 42 -31 0 -112 0 -125 0 -7 0 -46 1 -86 3 -41 2 -78 0 -84 -3z"/>
<path d="M2098 6082 c-16 -3 -24 -40 -20 -83 3 -26 4 -347 2 -389 -1 -14 -2
-32 -1 -40 0 -8 0 -60 0 -115 -1 -55 0 -109 1 -120 0 -11 1 -27 1 -35 0 -8 0
-35 0 -60 0 -25 0 -49 0 -55 0 -5 0 -57 0 -115 0 -58 0 -114 0 -125 -1 -11 0
-51 0 -90 1 -38 1 -74 1 -80 -2 -30 -3 -252 -1 -260 1 -5 1 -13 0 -17 -1 -9
-1 -66 -1 -158 0 -114 1 -344 1 -360 -1 -8 0 -46 0 -85 1 -38 1 -74 1 -80 -2
-30 -3 -252 -1 -260 1 -5 1 -13 0 -17 -1 -9 -1 -67 -1 -158 0 -36 1 -155 1
-265 0 -110 0 -207 0 -217 0 -11 11 -17 39 -20 22 -2 46 -1 54 2 8 3 58 3 111
0 54 -3 101 -2 107 1 5 4 9 22 8 40 -1 19 -1 39 0 44 1 6 1 35 1 65 -1 30 0
100 0 155 0 55 0 107 0 115 0 8 -1 29 0 45 0 17 0 37 0 45 0 8 0 60 0 115 1
55 0 109 -1 120 0 11 -1 27 -1 35 0 8 0 35 0 60 0 25 0 50 0 55 0 6 0 57 0
115 0 58 0 114 0 125 1 11 0 52 0 90 -1 39 -1 75 -1 80 2 30 3 252 1 260 -1 6
-1 13 0 17 1 9 1 66 1 158 0 114 -1 344 -1 360 1 8 0 47 0 85 -1 39 -1 75 -1
80 2 30 3 252 1 260 -1 6 -1 13 0 17 1 9 1 66 1 158 0 106 -1 344 -1 360 1 25
0 114 -1 128 -1 8 -13 13 -32 12 -17 -1 -35 -1 -41 0 -21 4 -158 0 -162 -4 -3
-3 -15 -1 -27 3 -11 4 -29 6 -38 3z"/>
<path d="M6636 6082 c-2 -1 -19 -3 -39 -4 -31 -1 -36 -5 -39 -30 -3 -15 -3
-30 0 -33 2 -2 4 -35 3 -72 0 -37 -1 -131 -1 -208 1 -77 1 -147 1 -155 -1 -8
0 -46 0 -85 1 -38 1 -74 1 -80 -2 -30 -3 -252 -1 -260 1 -5 1 -13 0 -17 -1 -9
-1 -66 -1 -158 0 -114 1 -344 1 -360 -1 -8 0 -46 0 -85 1 -38 1 -74 1 -80 -2
-30 -3 -252 -1 -260 1 -5 1 -13 0 -17 -1 -9 -1 -66 -1 -158 0 -114 1 -344 1
-360 -1 -8 0 -46 0 -85 1 -38 1 -74 1 -80 -2 -30 -3 -252 -1 -260 1 -5 1 -13
0 -17 -1 -9 -1 -86 0 -108 0 -8 1 -55 0 -105 0 -49 0 -97 0 -106 0 -12 11 -18
35 -21 19 -2 34 0 34 5 0 4 4 6 9 2 5 -3 45 -6 88 -6 146 -1 152 0 152 19 0 9
0 71 1 137 1 66 0 125 -1 130 -1 6 -1 13 0 17 1 9 1 66 1 158 0 36 0 128 -1
205 0 77 0 146 0 153 -1 128 0 273 1 292 1 14 2 32 1 40 0 8 0 60 0 115 1 55
0 109 -1 120 0 11 -1 27 -1 35 0 8 0 35 0 60 -1 62 -1 53 0 170 0 58 0 114 0
125 1 11 0 52 0 90 -1 39 -1 75 -1 80 2 30 3 252 1 260 -1 6 -1 13 0 17 1 9 1
66 1 158 0 36 0 128 -1 205 0 77 0 146 0 153 -1 129 0 274 1 297 1 17 2 37 1
45 0 8 -1 38 -1 66 l-1 50 -52 3 c-93 4 -189 6 -191 3z"/>
<path d="M2724 5759 c-3 -5 -5 -44 -4 -87 1 -42 1 -84 1 -92 0 -8 0 -46 0 -85
1 -38 1 -74 1 -80 -2 -30 -3 -252 -1 -260 1 -5 1 -13 0 -17 -1 -9 -1 -66 -1
-158 0 -114 1 -344 1 -360 -1 -8 0 -46 0 -85 1 -38 1 -74 1 -80 -2 -30 -3
-252 -1 -260 1 -5 1 -13 0 -17 -1 -9 -2 -71 -1 -153 1 -153 1 -312 0 -335 -1
-14 -2 -32 -1 -40 0 -8 0 -60 0 -115 -1 -55 0 -107 0 -115 0 -8 1 -31 0 -50 0
-19 0 -42 0 -50 0 -8 1 -38 1 -67 l1 -51 54 1 c30 1 55 0 55 -3 0 -3 28 -4 62
-2 67 3 112 3 131 -1 6 -1 12 9 14 23 2 21 3 220 2 270 -1 8 0 35 0 60 1 25 1
72 1 105 -1 153 -1 312 0 335 1 14 2 32 1 40 0 8 0 60 0 115 1 55 0 109 -1
120 0 11 -1 27 -1 35 0 8 0 35 0 60 -1 62 -1 53 0 170 0 58 0 114 0 125 1 11
0 52 0 90 -1 39 -1 75 -1 80 2 30 3 252 1 260 -1 6 -1 13 0 17 1 9 1 66 1 158
0 106 -1 344 -1 360 1 26 0 114 -1 127 -1 8 -18 13 -47 13 -25 0 -77 0 -114 1
-37 1 -70 -1 -73 -4 -3 -2 -21 -1 -40 3 -19 5 -37 4 -40 -1z"/>
<path d="M5996 5763 c-2 -2 -19 -4 -39 -5 -31 -1 -36 -5 -39 -30 -3 -15 -3
-30 0 -33 2 -2 4 -35 3 -72 0 -37 -1 -131 -1 -208 1 -77 1 -147 1 -155 0 -8 0
-80 0 -160 0 -80 0 -152 0 -160 -1 -8 0 -46 0 -85 1 -38 1 -74 1 -80 -2 -30
-3 -252 -1 -260 1 -5 1 -13 0 -17 -1 -9 -1 -66 -1 -158 0 -36 0 -128 1 -205 0
-77 0 -146 0 -152 1 -129 0 -274 -1 -293 -1 -14 -2 -32 -1 -40 0 -8 0 -60 0
-115 -1 -55 0 -107 0 -115 0 -8 1 -31 0 -50 0 -19 0 -42 0 -50 0 -8 1 -38 1
-65 l1 -51 36 -2 c20 -2 40 -5 44 -8 4 -2 10 -1 12 3 3 5 38 6 79 3 107 -7
147 -2 147 18 0 9 0 71 1 137 1 66 0 125 -1 130 -1 6 -1 13 0 17 1 9 1 66 1
158 0 114 -1 344 -1 360 1 8 0 47 0 85 -1 39 -1 75 -1 80 2 30 3 252 1 260 -1
6 -1 13 0 17 1 9 1 66 1 158 0 67 -1 333 -1 360 0 8 0 80 0 160 0 80 0 152 0
160 0 8 0 47 0 85 -1 39 -1 75 -1 80 4 67 3 257 -1 261 -3 3 -3 12 -1 19 6 14
-62 25 -91 15 -8 -3 -45 -3 -81 0 -36 3 -66 4 -68 3z"/>
<path d="M3398 5442 c-27 -2 -37 -8 -37 -20 0 -9 0 -71 -1 -137 -1 -66 0 -124
1 -130 1 -5 1 -13 0 -17 -1 -9 -1 -66 -1 -158 0 -36 0 -128 1 -205 0 -77 0
-146 0 -152 1 -129 0 -274 -1 -293 -1 -14 -2 -32 -1 -40 0 -8 0 -60 0 -115 -1
-55 0 -109 1 -120 0 -11 1 -27 1 -35 0 -8 0 -35 0 -60 0 -25 0 -49 0 -55 0 -5
0 -57 0 -115 0 -58 0 -114 0 -125 -1 -34 0 -119 1 -133 1 -8 13 -13 32 -12 17
1 36 1 41 0 6 -1 44 -1 85 0 77 1 82 1 125 -1 14 -1 28 1 31 4 3 3 5 40 4 84
-1 43 -1 85 -1 93 0 8 0 47 0 85 -1 39 -1 76 0 83 0 6 1 60 1 120 0 59 0 132
1 162 0 30 0 60 0 65 -1 34 -2 406 -2 445 1 8 0 47 0 85 -1 39 -1 75 -1 80 2
30 3 252 1 260 -1 6 -1 13 0 17 1 9 1 86 0 108 0 8 -1 56 0 105 0 50 0 97 0
106 0 12 -11 18 -35 21 -19 2 -34 1 -34 -4 0 -4 -6 -5 -12 -3 -17 7 -152 11
-200 7z"/>
<path d="M5288 5439 c-5 -4 -9 -22 -8 -40 1 -19 1 -38 0 -44 -1 -5 -1 -35 -1
-65 1 -30 0 -100 0 -155 0 -55 0 -107 0 -115 0 -8 1 -28 0 -45 0 -16 0 -37 0
-45 0 -8 0 -60 0 -115 -1 -55 0 -107 0 -115 0 -8 1 -28 0 -45 0 -16 0 -37 0
-45 0 -8 0 -60 0 -115 -1 -55 0 -107 0 -115 0 -8 1 -28 0 -45 0 -16 0 -37 0
-45 0 -8 0 -60 0 -115 -1 -55 0 -107 0 -115 0 -8 1 -28 0 -45 0 -16 0 -34 0
-40 0 -5 0 -46 1 -90 0 -44 1 -136 1 -205 0 -69 0 -132 0 -142 0 -11 11 -17
39 -20 22 -2 46 -1 54 2 8 3 58 3 111 0 54 -3 101 -2 107 1 5 4 9 22 8 40 -1
19 -1 39 0 44 1 6 1 35 1 65 -1 98 -1 223 -1 335 1 61 0 115 -1 120 -1 6 -1
13 0 17 1 9 1 67 1 158 0 36 0 155 -1 265 0 110 0 205 0 210 -1 6 0 30 0 55 2
52 1 147 0 240 0 36 -1 70 0 75 3 83 2 257 -2 261 -3 3 -3 12 -1 19 6 14 -62
25 -90 15 -8 -3 -58 -3 -111 0 -54 3 -101 2 -107 -1z"/>
<path d="M4003 5117 c-2 -4 -4 -42 -3 -85 1 -42 1 -84 1 -92 0 -8 0 -46 0 -85
1 -38 1 -74 1 -80 -2 -30 -3 -252 -1 -260 1 -5 1 -13 0 -17 -1 -9 -1 -66 -1
-158 0 -83 1 -340 1 -360 0 -8 -1 -39 -1 -68 0 -29 1 -56 4 -60 3 -5 76 -8
163 -8 127 1 157 4 155 15 -2 12 -3 50 -1 91 0 8 0 31 0 50 -1 19 0 42 0 50 1
8 0 49 0 90 -1 41 -1 125 -1 185 1 61 0 115 -1 120 -1 6 -1 13 0 17 1 9 1 66
1 158 0 36 0 128 -1 205 0 77 0 146 0 153 0 6 1 37 1 68 1 31 -3 61 -9 67 -12
12 -300 16 -308 4z"/>
<path d="M4641 5105 c0 -33 -1 -236 -2 -295 0 -30 0 -59 0 -65 1 -27 1 -160 2
-345 0 -113 0 -209 0 -215 1 -5 0 -30 0 -55 -1 -25 -1 -72 -1 -105 0 -33 0
-84 0 -114 -1 -29 2 -56 5 -60 4 -3 76 -6 161 -7 l154 -1 1 46 c1 25 0 51 -1
56 -1 6 -2 24 -1 40 1 17 2 37 2 45 0 8 0 60 0 115 1 55 0 107 0 115 0 8 -1
29 0 45 0 17 0 37 0 45 0 8 0 60 0 115 1 55 0 107 0 115 0 8 -1 29 0 45 0 17
0 37 0 45 0 8 0 60 0 115 1 55 0 107 0 115 0 8 -1 29 0 45 0 37 0 45 -1 118
-1 31 -4 57 -8 58 -4 0 -75 1 -159 2 -146 2 -152 1 -152 -18z"/>
</g>
</svg>
