<?xml version="1.0" encoding="UTF-8"?>
<svg width="706px" height="82px" viewBox="0 0 706 82" version="1.1" xmlns="http://www.w3.org/2000/svg" xmlns:xlink="http://www.w3.org/1999/xlink">
    <title>logo-horizontal-light</title>
    <g id="Logo" stroke="none" stroke-width="1" fill="none" fill-rule="evenodd">
        <g id="Artboard" transform="translate(-147.000000, -459.000000)" fill="#FFFFFF" fill-rule="nonzero">
            <g id="logo-horizontal-light" transform="translate(147.500000, 459.500000)">
                <path d="M5,0.04 L5,80.04 L0,80.04 L0,0.04 L5,0.04 Z M135,0.04 L135,80.04 L130,80.04 L130,0.04 L135,0.04 Z M229.571429,0 C231.847926,0 233.764977,0.83958021 235.322581,2.3988006 L235.322581,2.3988006 L243.230415,10.3148426 C244.907834,11.994003 245.746544,13.9130435 245.746544,16.3118441 L245.746544,16.3118441 L245.746544,27.1064468 C245.746544,29.3853073 244.907834,31.4242879 243.230415,33.1034483 L243.230415,33.1034483 L236.400922,39.94003 L243.230415,46.7766117 C244.907834,48.4557721 245.746544,50.3748126 245.746544,52.7736132 L245.746544,52.7736132 L245.746544,63.808096 C245.746544,66.0869565 244.907834,68.125937 243.230415,69.8050975 L243.230415,69.8050975 L235.442396,77.6011994 C233.764977,79.2803598 231.847926,80 229.571429,80 L229.571429,80 L185,80 L185,0 Z M305.494624,0 C307.771121,0 309.807988,0.83958021 311.485407,2.51874063 L311.485407,2.51874063 L321.310292,12.3538231 C322.987711,14.0329835 323.826421,16.071964 323.826421,18.3508246 L323.826421,18.3508246 L323.826421,61.6491754 C323.826421,63.928036 322.987711,65.9670165 321.310292,67.6461769 L321.310292,67.6461769 L311.485407,77.4812594 C309.807988,79.1604198 307.771121,80 305.494624,80 L305.494624,80 L274.222734,80 C271.946237,80 269.90937,79.1604198 268.231951,77.4812594 L268.231951,77.4812594 L258.407066,67.6461769 C256.729647,65.9670165 255.890937,63.928036 255.890937,61.6491754 L255.890937,61.6491754 L255.890937,18.3508246 C255.890937,16.071964 256.729647,14.0329835 258.407066,12.3538231 L258.407066,12.3538231 L268.231951,2.51874063 C269.90937,0.83958021 271.946237,0 274.222734,0 L274.222734,0 Z M383.574501,0 C385.850998,0 387.887865,0.83958021 389.565284,2.51874063 L389.565284,2.51874063 L399.390169,12.3538231 C401.067588,14.0329835 401.906298,16.071964 401.906298,18.3508246 L401.906298,18.3508246 L401.906298,61.6491754 C401.906298,63.928036 401.067588,65.9670165 399.390169,67.6461769 L399.390169,67.6461769 L389.565284,77.4812594 C387.887865,79.1604198 385.850998,80 383.574501,80 L383.574501,80 L352.302611,80 C350.026114,80 347.989247,79.1604198 346.311828,77.4812594 L346.311828,77.4812594 L336.486943,67.6461769 C334.809524,65.9670165 333.970814,63.928036 333.970814,61.6491754 L333.970814,61.6491754 L333.970814,18.3508246 C333.970814,16.071964 334.809524,14.0329835 336.486943,12.3538231 L336.486943,12.3538231 L346.311828,2.51874063 C347.989247,0.83958021 350.026114,0 352.302611,0 L352.302611,0 Z M437.451613,0 L456.382488,62.0089955 L475.313364,0 L497.359447,0 L497.359447,80 L483.341014,80 L483.341014,16.4317841 L463.81106,80 L448.953917,80 L429.423963,16.4317841 L429.423963,80 L415.40553,80 L415.40553,0 L437.451613,0 Z M564.77573,0 L564.77573,13.6731634 L541.651306,13.6731634 L541.651306,80 L527.273425,80 L527.273425,13.6731634 L504.149002,13.6731634 L504.149002,0 L564.77573,0 Z M608.109063,0 L637.463902,80 L622.84639,80 L615.298003,59.970015 L583.427035,59.970015 L575.878648,80 L561.500768,80 L591.095238,0 L608.109063,0 Z M688.824885,0 C691.101382,0 693.018433,0.83958021 694.576037,2.3988006 L694.576037,2.3988006 L702.483871,10.3148426 C704.16129,11.994003 705,13.9130435 705,16.3118441 L705,16.3118441 L705,32.143928 C705,34.5427286 704.16129,36.4617691 702.483871,38.1409295 L702.483871,38.1409295 L694.576037,46.0569715 C693.018433,47.6161919 691.101382,48.4557721 688.824885,48.4557721 L688.824885,48.4557721 L658.631336,48.4557721 L658.631336,80 L644.253456,80 L644.253456,0 Z M15,5.04 L15,75.04 L10,75.04 L10,5.04 L15,5.04 Z M125,5.04 L125,75.04 L120,75.04 L120,5.04 L125,5.04 Z M25,10.04 L25,70.04 L20,70.04 L20,10.04 L25,10.04 Z M115,10.04 L115,70.04 L110,70.04 L110,10.04 L115,10.04 Z M223.221198,46.6566717 L199.37788,46.6566717 L199.37788,66.3268366 L226.336406,66.3268366 C226.935484,66.3268366 227.534562,66.0869565 228.013825,65.6071964 L228.013825,65.6071964 L230.64977,62.9685157 C231.129032,62.4887556 231.368664,62.0089955 231.368664,61.2893553 L231.368664,61.2893553 L231.368664,54.8125937 C231.368664,54.0929535 231.129032,53.6131934 230.64977,53.1334333 L230.64977,53.1334333 L224.898618,47.3763118 C224.419355,46.8965517 223.940092,46.6566717 223.221198,46.6566717 L223.221198,46.6566717 Z M302.379416,13.6731634 L277.337942,13.6731634 C276.619048,13.6731634 276.139785,13.9130435 275.660522,14.3928036 L275.660522,14.3928036 L270.987711,19.0704648 C270.508449,19.5502249 270.268817,20.149925 270.268817,20.7496252 L270.268817,20.7496252 L270.268817,59.2503748 C270.268817,59.850075 270.508449,60.4497751 270.987711,60.9295352 L270.987711,60.9295352 L275.660522,65.6071964 C276.139785,66.0869565 276.619048,66.3268366 277.337942,66.3268366 L277.337942,66.3268366 L302.379416,66.3268366 C303.09831,66.3268366 303.577573,66.0869565 304.056836,65.6071964 L304.056836,65.6071964 L308.729647,60.9295352 C309.208909,60.4497751 309.448541,59.850075 309.448541,59.2503748 L309.448541,59.2503748 L309.448541,20.7496252 C309.448541,20.149925 309.208909,19.5502249 308.729647,19.0704648 L308.729647,19.0704648 L304.056836,14.3928036 C303.577573,13.9130435 303.09831,13.6731634 302.379416,13.6731634 L302.379416,13.6731634 Z M380.459293,13.6731634 L355.417819,13.6731634 C354.698925,13.6731634 354.219662,13.9130435 353.740399,14.3928036 L353.740399,14.3928036 L349.067588,19.0704648 C348.588326,19.5502249 348.348694,20.149925 348.348694,20.7496252 L348.348694,20.7496252 L348.348694,59.2503748 C348.348694,59.850075 348.588326,60.4497751 349.067588,60.9295352 L349.067588,60.9295352 L353.740399,65.6071964 C354.219662,66.0869565 354.698925,66.3268366 355.417819,66.3268366 L355.417819,66.3268366 L380.459293,66.3268366 C381.178187,66.3268366 381.65745,66.0869565 382.136713,65.6071964 L382.136713,65.6071964 L386.809524,60.9295352 C387.288786,60.4497751 387.528418,59.850075 387.528418,59.2503748 L387.528418,59.2503748 L387.528418,20.7496252 C387.528418,20.149925 387.288786,19.5502249 386.809524,19.0704648 L386.809524,19.0704648 L382.136713,14.3928036 C381.65745,13.9130435 381.178187,13.6731634 380.459293,13.6731634 L380.459293,13.6731634 Z M35,15.04 L35,65.04 L30,65.04 L30,15.04 L35,15.04 Z M105,15.04 L105,65.04 L100,65.04 L100,15.04 L105,15.04 Z M95,20.04 L95,60.04 L90,60.04 L90,20.04 L95,20.04 Z M45,20.04 L45,60.04 L40,60.04 L40,20.04 L45,20.04 Z M85,25.04 L85,55.04 L80,55.04 L80,25.04 L85,25.04 Z M55,25.04 L55,55.04 L50,55.04 L50,25.04 L55,25.04 Z M75,30 L75,50 L70,50 L70,30 L75,30 Z M65,30 L65,50 L60,50 L60,30 L65,30 Z M599.362519,15.4722639 L588.339478,47.1364318 L610.385561,47.1364318 L599.362519,15.4722639 Z M685.589862,13.6731634 L658.631336,13.6731634 L658.631336,34.7826087 L685.589862,34.7826087 C686.308756,34.7826087 686.788018,34.5427286 687.267281,34.0629685 L687.267281,34.0629685 L689.903226,31.4242879 C690.382488,30.9445277 690.62212,30.4647676 690.62212,29.7451274 L690.62212,29.7451274 L690.62212,18.7106447 C690.62212,17.9910045 690.382488,17.5112444 689.903226,17.0314843 L689.903226,17.0314843 L687.267281,14.3928036 C686.788018,13.9130435 686.308756,13.6731634 685.589862,13.6731634 L685.589862,13.6731634 Z M226.336406,13.6731634 L199.37788,13.6731634 L199.37788,33.2233883 L223.460829,33.2233883 C224.059908,33.2233883 224.658986,32.9835082 225.138249,32.5037481 L225.138249,32.5037481 L230.64977,26.9865067 C231.129032,26.5067466 231.368664,26.0269865 231.368664,25.3073463 L231.368664,25.3073463 L231.368664,18.7106447 C231.368664,17.9910045 231.129032,17.5112444 230.64977,17.0314843 L230.64977,17.0314843 L228.013825,14.3928036 C227.534562,13.9130435 227.0553,13.6731634 226.336406,13.6731634 L226.336406,13.6731634 Z" id="Combined-Shape"></path>
            </g>
        </g>
    </g>
</svg>